<svg id="Layer_1" data-name="Layer 1" xmlns="http://www.w3.org/2000/svg" width="682.35" height="526.91" viewBox="0 0 682.35 526.91"><defs><style>.cls-1{fill:none;stroke:#000;stroke-miterlimit:10;stroke-width:15px;}</style></defs><title>Artboard 5</title><path class="cls-1" d="M250.66,117.07V91a18.6,18.6,0,0,1,18.6-18.6H413.09A18.6,18.6,0,0,1,431.69,91v26"/><path class="cls-1" d="M570.57,322.84V416a29.66,29.66,0,0,1-29.65,29.65H141.43A29.66,29.66,0,0,1,111.78,416V322.81"/><path class="cls-1" d="M220.9,114.67V68.18A26.16,26.16,0,0,1,247.06,42H435.3a26.16,26.16,0,0,1,26.15,26.16V116"/><path class="cls-1" d="M316,328.15H129.31A37.92,37.92,0,0,1,91.4,290.24V154.71a37.91,37.91,0,0,1,37.91-37.91H553A37.91,37.91,0,0,1,591,154.71V290.24A37.91,37.91,0,0,1,553,328.15H368.77"/><rect class="cls-1" x="318.24" y="281.99" width="45.88" height="83.08" rx="13.84"/></svg>
