<svg id="Layer_1" data-name="Layer 1" xmlns="http://www.w3.org/2000/svg" width="535.94" height="468.95" viewBox="0 0 535.94 468.95"><defs><style>.cls-1{fill:none;stroke:#000;stroke-linecap:round;stroke-miterlimit:10;stroke-width:15px;}</style></defs><title>Artboard 3</title><rect class="cls-1" x="44.87" y="379.87" width="223.05" height="29.21"/><rect class="cls-1" x="268.02" y="379.87" width="223.05" height="29.21"/><path class="cls-1" d="M273.71,370s79.71-92.25,196.13-52"/><path class="cls-1" d="M273.71,378.1s115.53-71.65,204.19-28.66"/><path class="cls-1" d="M259.9,370s-79.71-92.25-196.13-52"/><path class="cls-1" d="M259.9,378.1S144.37,306.45,55.71,349.44"/><path d="M268,304.11a14.65,14.65,0,0,1-9.67-3.64c-10.1-8.83-19.84-17.13-28.44-24.45l0,0c-25.2-21.47-46.95-40-62.09-58.28-16.92-20.42-24.81-39.79-24.81-60.94,0-20.55,7.05-39.51,19.84-53.38a67.27,67.27,0,0,1,50-21.78,62.88,62.88,0,0,1,39.29,13.57A80,80,0,0,1,268,111.76a80,80,0,0,1,15.89-16.59,62.93,62.93,0,0,1,39.3-13.57,67.26,67.26,0,0,1,50,21.78C386,117.25,393,136.21,393,156.76c0,21.15-7.88,40.52-24.8,60.93C353.08,236,331.32,254.5,306.13,276c-8.61,7.34-18.37,15.65-28.49,24.51A14.69,14.69,0,0,1,268,304.11ZM212.79,96.25a52.76,52.76,0,0,0-39.26,17.06c-10.29,11.16-16,26.59-16,43.45,0,17.79,6.61,33.7,21.44,51.59,14.32,17.29,35.64,35.45,60.31,56.48l.05,0c8.62,7.35,18.4,15.68,28.58,24.58,10.24-8.91,20-17.26,28.68-24.63,24.67-21,46-39.18,60.31-56.47,14.82-17.89,21.43-33.8,21.43-51.59,0-16.86-5.67-32.29-16-43.45a52.75,52.75,0,0,0-39.25-17.06,48.64,48.64,0,0,0-30.34,10.5,71.19,71.19,0,0,0-16.91,19.57,9.24,9.24,0,0,1-15.88,0,71,71,0,0,0-16.91-19.57A48.63,48.63,0,0,0,212.79,96.25Z"/></svg>
