<svg id="Layer_1" data-name="Layer 1" xmlns="http://www.w3.org/2000/svg" width="566" height="479" viewBox="0 0 566 479"><defs><style>.cls-1{fill:none;stroke:#000;stroke-linecap:round;stroke-miterlimit:10;stroke-width:15px;}</style></defs><title>Artboard 2</title><path class="cls-1" d="M428,167A145,145,0,0,0,285,22C205.77,20.94,139.8,84.49,138,163.7A144.71,144.71,0,0,0,191.1,279.16,41.09,41.09,0,0,1,206,311.27v55.26A42.46,42.46,0,0,0,248.47,409h69.06A42.46,42.46,0,0,0,360,366.53V311.47c0-.57,0-1.13,0-1.69a35.3,35.3,0,0,1,13.17-29.2A144.73,144.73,0,0,0,428,167Z"/><path class="cls-1" d="M341.5,403.5c0,32.31-26.19,51.5-58.5,51.5s-58.5-20.19-58.5-52.5"/><line class="cls-1" x1="209.5" y1="327.5" x2="354.5" y2="327.5"/><line class="cls-1" x1="208.5" y1="366.5" x2="353.5" y2="366.5"/><path class="cls-1" d="M306.19,180.71l-20.91-57.33a1.22,1.22,0,0,0-2.28,0l-23.31,58.27S279.62,205.71,306.19,180.71Z"/><line class="cls-1" x1="258.42" y1="184.8" x2="258.42" y2="326.6"/><line class="cls-1" x1="307.72" y1="184.84" x2="307.72" y2="326.64"/><line class="cls-1" x1="453.55" y1="169.1" x2="488.51" y2="169.1"/><line class="cls-1" x1="440.57" y1="257.71" x2="469.69" y2="287.59"/><line class="cls-1" x1="443.25" y1="81.81" x2="474.92" y2="58.96"/><line class="cls-1" x1="110.31" y1="169.1" x2="71.69" y2="169.1"/><line class="cls-1" x1="124.66" y1="257.71" x2="92.48" y2="287.59"/><line class="cls-1" x1="121.7" y1="81.81" x2="86.7" y2="58.96"/><path class="cls-1" d="M335.78,71.72s46.73,25.7,52.57,73.6"/></svg>
