<svg id="Layer_1" data-name="Layer 1" xmlns="http://www.w3.org/2000/svg" width="4100" height="100" viewBox="0 0 4100 100"><defs><style>.cls-1,.cls-2{fill:none;}.cls-1{stroke:#fff;stroke-linecap:round;stroke-miterlimit:10;}</style></defs><title>Artboard 1</title><path class="cls-1" d="M50,60.11l6.82.14a35.17,35.17,0,0,0,25.12-10.9c14.93-15.71,9.34-24.22,1.23-28.71a27.4,27.4,0,0,0-24-1.14C38.61,28.25-9.09,52.2,10.21,79c13.26,18.39,23.9,17.19,30.85,12.29a21.35,21.35,0,0,0,9-17.73l-.47-55.58"/><circle class="cls-1" cx="50.42" cy="10.13" r="2.87"/><path class="cls-1" d="M52.73,16.14l.48,55.29a21.42,21.42,0,0,1-9,17.74c-6.95,4.89-17.59,6.09-30.85-12.3C-5.91,50.11,41.79,26.16,62.32,17.41a27.44,27.44,0,0,1,24,1.13c8.11,4.49,13.7,13-1.23,28.72A35.2,35.2,0,0,1,60,58.15L53.14,58"/><circle class="cls-1" cx="52.3" cy="8.25" r="2.87"/><path class="cls-1" d="M149.27,60.11l6.1.14a30,30,0,0,0,22.45-10.9c13.35-15.71,8.35-24.22,1.1-28.71a22.18,22.18,0,0,0-21.44-1.14c-18.36,8.75-61,32.7-43.75,59.46,11.85,18.39,21.36,17.19,27.58,12.29a22.27,22.27,0,0,0,8-17.73l-.42-55.58"/><ellipse class="cls-1" cx="149.67" cy="10.13" rx="2.57" ry="2.87"/><path class="cls-1" d="M151.74,16.14l.43,55.29a22.33,22.33,0,0,1-8,17.74c-6.22,4.89-15.73,6.09-27.58-12.3C99.32,50.11,142,26.16,160.32,17.41a22.21,22.21,0,0,1,21.44,1.13c7.25,4.49,12.24,13-1.1,28.72a30,30,0,0,1-22.45,10.89l-6.1-.14"/><ellipse class="cls-1" cx="151.36" cy="8.25" rx="2.57" ry="2.87"/><path class="cls-1" d="M250.28,60.11l5.63.14c7.86-.09,15.34-4,20.76-10.9,12.34-15.71,7.72-24.22,1-28.71a19.17,19.17,0,0,0-19.82-1.14c-17,8.75-56.39,32.7-40.44,59.46,10.95,18.39,19.74,17.19,25.49,12.29,4.74-4,7.47-10.71,7.41-17.73l-.39-55.58"/><ellipse class="cls-1" cx="250.65" cy="10.13" rx="2.37" ry="2.87"/><path class="cls-1" d="M252.56,16.14l.4,55.29c0,7-2.68,13.69-7.42,17.74-5.75,4.89-14.54,6.09-25.49-12.3-16-26.76,23.47-50.71,40.44-59.46a19.19,19.19,0,0,1,19.82,1.13c6.7,4.49,11.32,13-1,28.72-5.42,6.87-12.9,10.8-20.75,10.89L252.9,58"/><ellipse class="cls-1" cx="252.2" cy="8.25" rx="2.37" ry="2.87"/><path class="cls-1" d="M350.29,60.11l4.87.14c6.78-.09,13.24-4,17.92-10.9,10.65-15.71,6.66-24.22.88-28.71a14.68,14.68,0,0,0-17.12-1.14C342.19,28.25,308.15,52.2,321.92,79c9.46,18.39,17.05,17.19,22,12.29,4.1-4,6.46-10.71,6.41-17.73L350,17.94"/><ellipse class="cls-1" cx="350.61" cy="10.13" rx="2.05" ry="2.87"/><path class="cls-1" d="M352.26,16.14l.34,55.29c0,7-2.31,13.69-6.4,17.74-5,4.89-12.56,6.09-22-12.3-13.77-26.76,20.27-50.71,34.93-59.46a14.68,14.68,0,0,1,17.11,1.13c5.79,4.49,9.77,13-.88,28.72-4.68,6.87-11.14,10.8-17.92,10.89L352.55,58"/><ellipse class="cls-1" cx="351.95" cy="8.25" rx="2.05" ry="2.87"/><path class="cls-1" d="M450.3,60.11l3.95.14c5.49-.09,10.73-4,14.52-10.9,8.64-15.71,5.4-24.22.71-28.71-4.26-4.08-9.39-4.44-13.87-1.14-11.87,8.75-39.46,32.7-28.3,59.46,7.67,18.39,13.82,17.19,17.84,12.29,3.32-4,5.23-10.71,5.19-17.73l-.27-55.58"/><ellipse class="cls-1" cx="450.56" cy="10.13" rx="1.66" ry="2.87"/><path class="cls-1" d="M451.9,16.14l.27,55.29c.05,7-1.87,13.69-5.18,17.74-4,4.89-10.18,6.09-17.85-12.3C418,50.11,445.57,26.16,457.45,17.41c4.48-3.3,9.6-2.94,13.87,1.13,4.69,4.49,7.92,13-.72,28.72-3.79,6.87-9,10.8-14.52,10.89L452.14,58"/><ellipse class="cls-1" cx="451.65" cy="8.25" rx="1.66" ry="2.87"/><path class="cls-1" d="M549.81,60.11l3.25.14c4.53-.09,8.85-4,12-10.9,7.12-15.71,4.45-24.22.59-28.71-3.52-4.08-7.75-4.44-11.44-1.14C544.4,28.25,521.65,52.2,530.85,79c6.32,18.39,11.4,17.19,14.71,12.29,2.74-4,4.32-10.71,4.28-17.73l-.22-55.58"/><ellipse class="cls-1" cx="550.02" cy="10.13" rx="1.37" ry="2.87"/><path class="cls-1" d="M551.13,16.14l.22,55.29c0,7-1.54,13.69-4.27,17.74-3.32,4.89-8.39,6.09-14.72-12.3-9.2-26.76,13.55-50.71,23.34-59.46,3.7-3.3,7.92-2.94,11.44,1.13,3.87,4.49,6.53,13-.59,28.72-3.13,6.87-7.45,10.8-12,10.89L551.32,58"/><ellipse class="cls-1" cx="550.92" cy="8.25" rx="1.37" ry="2.87"/><path class="cls-1" d="M650.32,60.11l2.56.14c3.57-.09,7-4,9.43-10.9,5.6-15.71,3.5-24.22.46-28.71-2.77-4.08-6.1-4.44-9-1.14C646.06,28.25,628.15,52.2,635.4,79c5,18.39,9,17.19,11.58,12.29,2.15-4,3.39-10.71,3.36-17.73l-.17-55.58"/><ellipse class="cls-1" cx="650.49" cy="10.13" rx="1.08" ry="2.87"/><path class="cls-1" d="M651.36,16.14l.17,55.29c0,7-1.21,13.69-3.36,17.74-2.61,4.89-6.61,6.09-11.58-12.3C629.34,50.11,647.25,26.16,655,17.41c2.91-3.3,6.23-2.94,9,1.13,3,4.49,5.14,13-.46,28.72-2.46,6.87-5.86,10.8-9.43,10.89L651.51,58"/><ellipse class="cls-1" cx="651.19" cy="8.25" rx="1.08" ry="2.87"/><path class="cls-1" d="M750.33,60.11l1.79.14c2.5-.09,4.87-4,6.6-10.9,3.92-15.71,2.45-24.22.32-28.71-1.94-4.08-4.26-4.44-6.3-1.14-5.39,8.75-17.92,32.7-12.85,59.46,3.48,18.39,6.27,17.19,8.1,12.29,1.51-4,2.38-10.71,2.36-17.73l-.13-55.58"/><ellipse class="cls-1" cx="750.45" cy="10.13" rx="0.75" ry="2.87"/><path class="cls-1" d="M751.06,16.14l.12,55.29c0,7-.85,13.69-2.36,17.74-1.82,4.89-4.62,6.09-8.1-12.3-5.07-26.76,7.46-50.71,12.85-59.46,2-3.3,4.37-2.94,6.3,1.13,2.13,4.49,3.6,13-.32,28.72-1.72,6.87-4.1,10.8-6.6,10.89L751.16,58"/><ellipse class="cls-1" cx="750.94" cy="8.25" rx="0.75" ry="2.87"/><path class="cls-1" d="M850.34,60.11l1,.14c1.43-.09,2.78-4,3.77-10.9,2.23-15.71,1.4-24.22.18-28.71-1.1-4.08-2.43-4.44-3.59-1.14-3.08,8.75-10.23,32.7-7.34,59.46,2,18.39,3.58,17.19,4.62,12.29a95.12,95.12,0,0,0,1.35-17.73l-.07-55.58"/><ellipse class="cls-1" cx="850.41" cy="10.13" rx="0.43" ry="2.87"/><path class="cls-1" d="M850.75,16.14l.07,55.29a94.59,94.59,0,0,1-1.34,17.74c-1,4.89-2.64,6.09-4.62-12.3-2.9-26.76,4.25-50.71,7.33-59.46,1.16-3.3,2.49-2.94,3.6,1.13,1.21,4.49,2.05,13-.19,28.72-1,6.87-2.34,10.8-3.76,10.89l-1-.14"/><ellipse class="cls-1" cx="850.69" cy="8.25" rx="0.43" ry="2.87"/><path class="cls-1" d="M950.35,60.11l.56.14c.78-.09,1.52-4,2.06-10.9,1.23-15.71.77-24.22.1-28.71-.6-4.08-1.33-4.44-2-1.14a251.59,251.59,0,0,0-4,59.46c1.09,18.39,2,17.19,2.53,12.29a171.23,171.23,0,0,0,.74-17.73l0-55.58"/><ellipse class="cls-1" cx="950.38" cy="10.13" rx="0.24" ry="2.87"/><path class="cls-1" d="M950.57,16.14l0,55.29a168.79,168.79,0,0,1-.74,17.74c-.57,4.89-1.44,6.09-2.53-12.3a251.59,251.59,0,0,1,4-59.46c.64-3.3,1.37-2.94,2,1.13.67,4.49,1.13,13-.1,28.72-.54,6.87-1.28,10.8-2.06,10.89l-.56-.14"/><ellipse class="cls-1" cx="950.54" cy="8.25" rx="0.24" ry="2.87"/><path class="cls-1" d="M1050.35,60.11l.1.14c.14-.09.27-4,.37-10.9.22-15.71.13-24.22,0-28.71-.11-4.08-.24-4.44-.35-1.14-.3,8.75-1,32.7-.72,59.46.19,18.39.35,17.19.45,12.29.08-4,.13-10.71.13-17.73V17.94"/><ellipse class="cls-1" cx="1050.36" cy="10.13" rx="0.04" ry="2.87"/><path class="cls-1" d="M1050.39,16.14V71.43c0,7-.05,13.69-.13,17.74-.1,4.89-.26,6.09-.45-12.3-.28-26.76.41-50.71.71-59.46.11-3.3.24-2.94.35,1.13.12,4.49.2,13,0,28.72-.09,6.87-.22,10.8-.36,10.89l-.1-.14"/><ellipse class="cls-1" cx="1050.39" cy="8.25" rx="0.04" ry="2.87"/><path class="cls-1" d="M2050.44,17.94,2050,73.52a21.35,21.35,0,0,0,9,17.73c6.95,4.9,17.59,6.1,30.85-12.29,19.3-26.76-28.4-50.71-48.94-59.46a27.4,27.4,0,0,0-24,1.14c-8.11,4.49-13.7,13,1.23,28.71a35.17,35.17,0,0,0,25.12,10.9l6.82-.14"/><circle class="cls-1" cx="2049.58" cy="10.13" r="2.87"/><path class="cls-1" d="M2046.86,58l-6.82.14a35.2,35.2,0,0,1-25.12-10.89c-14.93-15.72-9.34-24.23-1.23-28.72a27.44,27.44,0,0,1,24-1.13c20.53,8.75,68.23,32.7,48.94,59.46-13.26,18.39-23.9,17.19-30.85,12.3a21.42,21.42,0,0,1-9-17.74l.48-55.29"/><circle class="cls-1" cx="2047.7" cy="8.25" r="2.87"/><path class="cls-1" d="M1951.09,17.94l-.42,55.58a22.27,22.27,0,0,0,8,17.73c6.22,4.9,15.73,6.1,27.58-12.29,17.25-26.76-25.39-50.71-43.75-59.46a22.18,22.18,0,0,0-21.44,1.14c-7.25,4.49-12.25,13,1.1,28.71a30,30,0,0,0,22.45,10.9l6.1-.14"/><ellipse class="cls-1" cx="1950.33" cy="10.13" rx="2.57" ry="2.87"/><path class="cls-1" d="M1947.89,58l-6.1.14a30,30,0,0,1-22.45-10.89C1906,31.54,1911,23,1918.24,18.54a22.21,22.21,0,0,1,21.44-1.13c18.36,8.75,61,32.7,43.75,59.46-11.85,18.39-21.36,17.19-27.58,12.3a22.33,22.33,0,0,1-8-17.74l.43-55.29"/><ellipse class="cls-1" cx="1948.64" cy="8.25" rx="2.57" ry="2.87"/><path class="cls-1" d="M1850.06,17.94l-.39,55.58c-.06,7,2.67,13.69,7.41,17.73,5.75,4.9,14.54,6.1,25.49-12.29,16-26.76-23.47-50.71-40.44-59.46a19.17,19.17,0,0,0-19.82,1.14c-6.7,4.49-11.32,13,1,28.71,5.42,6.88,12.9,10.81,20.76,10.9l5.63-.14"/><ellipse class="cls-1" cx="1849.35" cy="10.13" rx="2.37" ry="2.87"/><path class="cls-1" d="M1847.1,58l-5.64.14c-7.85-.09-15.33-4-20.75-10.89-12.34-15.72-7.72-24.23-1-28.72a19.19,19.19,0,0,1,19.82-1.13c17,8.75,56.39,32.7,40.44,59.46-11,18.39-19.74,17.19-25.49,12.3-4.74-4-7.47-10.72-7.42-17.74l.4-55.29"/><ellipse class="cls-1" cx="1847.8" cy="8.25" rx="2.37" ry="2.87"/><path class="cls-1" d="M1750,17.94l-.34,55.58c-.05,7,2.31,13.69,6.41,17.73,5,4.9,12.55,6.1,22-12.29,13.77-26.76-20.27-50.71-34.92-59.46A14.68,14.68,0,0,0,1726,20.64c-5.78,4.49-9.77,13,.88,28.71,4.68,6.88,11.14,10.81,17.92,10.9l4.87-.14"/><ellipse class="cls-1" cx="1749.39" cy="10.13" rx="2.05" ry="2.87"/><path class="cls-1" d="M1747.45,58l-4.87.14c-6.78-.09-13.24-4-17.92-10.89C1714,31.54,1718,23,1723.78,18.54a14.68,14.68,0,0,1,17.11-1.13c14.66,8.75,48.7,32.7,34.93,59.46-9.46,18.39-17.06,17.19-22,12.3-4.09-4-6.45-10.72-6.4-17.74l.34-55.29"/><ellipse class="cls-1" cx="1748.05" cy="8.25" rx="2.05" ry="2.87"/><path class="cls-1" d="M1649.93,17.94l-.27,55.58c0,7,1.87,13.69,5.19,17.73,4,4.9,10.17,6.1,17.84-12.29,11.16-26.76-16.43-50.71-28.3-59.46-4.48-3.3-9.61-2.94-13.87,1.14-4.69,4.49-7.93,13,.71,28.71,3.79,6.88,9,10.81,14.52,10.9l4-.14"/><ellipse class="cls-1" cx="1649.44" cy="10.13" rx="1.66" ry="2.87"/><path class="cls-1" d="M1647.86,58l-3.94.14c-5.49-.09-10.73-4-14.52-10.89-8.64-15.72-5.41-24.23-.72-28.72,4.27-4.07,9.39-4.43,13.87-1.13,11.88,8.75,39.46,32.7,28.31,59.46-7.67,18.39-13.82,17.19-17.85,12.3-3.31-4-5.23-10.72-5.18-17.74l.27-55.29"/><ellipse class="cls-1" cx="1648.35" cy="8.25" rx="1.66" ry="2.87"/><path class="cls-1" d="M1550.38,17.94l-.22,55.58c0,7,1.54,13.69,4.28,17.73,3.31,4.9,8.39,6.1,14.71-12.29,9.2-26.76-13.55-50.71-23.34-59.46-3.69-3.3-7.92-2.94-11.44,1.14-3.86,4.49-6.53,13,.59,28.71,3.13,6.88,7.45,10.81,12,10.9l3.25-.14"/><ellipse class="cls-1" cx="1549.98" cy="10.13" rx="1.37" ry="2.87"/><path class="cls-1" d="M1548.68,58l-3.25.14c-4.53-.09-8.85-4-12-10.89-7.12-15.72-4.46-24.23-.59-28.72,3.52-4.07,7.74-4.43,11.44-1.13,9.79,8.75,32.54,32.7,23.34,59.46-6.33,18.39-11.4,17.19-14.72,12.3-2.73-4-4.31-10.72-4.27-17.74l.22-55.29"/><ellipse class="cls-1" cx="1549.08" cy="8.25" rx="1.37" ry="2.87"/><path class="cls-1" d="M1449.83,17.94l-.17,55.58c0,7,1.21,13.69,3.36,17.73,2.61,4.9,6.61,6.1,11.58-12.29,7.25-26.76-10.66-50.71-18.37-59.46-2.9-3.3-6.23-2.94-9,1.14-3,4.49-5.14,13,.46,28.71,2.46,6.88,5.86,10.81,9.43,10.9l2.56-.14"/><ellipse class="cls-1" cx="1449.51" cy="10.13" rx="1.08" ry="2.87"/><path class="cls-1" d="M1448.49,58l-2.56.14c-3.57-.09-7-4-9.43-10.89-5.6-15.72-3.5-24.23-.46-28.72,2.77-4.07,6.09-4.43,9-1.13,7.71,8.75,25.62,32.7,18.37,59.46-5,18.39-9,17.19-11.58,12.3-2.15-4-3.39-10.72-3.36-17.74l.17-55.29"/><ellipse class="cls-1" cx="1448.81" cy="8.25" rx="1.08" ry="2.87"/><path class="cls-1" d="M1349.78,17.94l-.13,55.58c0,7,.85,13.69,2.36,17.73,1.83,4.9,4.62,6.1,8.1-12.29,5.07-26.76-7.46-50.71-12.85-59.46-2-3.3-4.36-2.94-6.3,1.14-2.13,4.49-3.6,13,.32,28.71,1.73,6.88,4.1,10.81,6.6,10.9l1.79-.14"/><ellipse class="cls-1" cx="1349.55" cy="10.13" rx="0.75" ry="2.87"/><path class="cls-1" d="M1348.84,58l-1.79.14c-2.5-.09-4.88-4-6.6-10.89-3.92-15.72-2.45-24.23-.32-28.72,1.93-4.07,4.26-4.43,6.3-1.13,5.39,8.75,17.92,32.7,12.85,59.46-3.48,18.39-6.28,17.19-8.1,12.3-1.51-4-2.38-10.72-2.36-17.74l.12-55.29"/><ellipse class="cls-1" cx="1349.06" cy="8.25" rx="0.75" ry="2.87"/><path class="cls-1" d="M1249.72,17.94l-.07,55.58A95.12,95.12,0,0,0,1251,91.25c1,4.9,2.63,6.1,4.62-12.29,2.89-26.76-4.26-50.71-7.34-59.46-1.16-3.3-2.49-2.94-3.59,1.14-1.22,4.49-2,13,.18,28.71,1,6.88,2.34,10.81,3.77,10.9l1-.14"/><ellipse class="cls-1" cx="1249.59" cy="10.13" rx="0.43" ry="2.87"/><path class="cls-1" d="M1249.19,58l-1,.14c-1.42-.09-2.78-4-3.76-10.89-2.24-15.72-1.4-24.23-.19-28.72,1.11-4.07,2.44-4.43,3.6-1.13,3.08,8.75,10.23,32.7,7.33,59.46-2,18.39-3.58,17.19-4.62,12.3a94.59,94.59,0,0,1-1.34-17.74l.07-55.29"/><ellipse class="cls-1" cx="1249.31" cy="8.25" rx="0.43" ry="2.87"/><path class="cls-1" d="M1149.69,17.94l0,55.58a171.23,171.23,0,0,0,.74,17.73c.57,4.9,1.44,6.1,2.53-12.29a251.59,251.59,0,0,0-4-59.46c-.64-3.3-1.37-2.94-2,1.14-.67,4.49-1.13,13,.1,28.71.54,6.88,1.28,10.81,2.06,10.9l.56-.14"/><ellipse class="cls-1" cx="1149.62" cy="10.13" rx="0.24" ry="2.87"/><path class="cls-1" d="M1149.39,58l-.56.14c-.78-.09-1.52-4-2.06-10.89-1.23-15.72-.77-24.23-.1-28.72.6-4.07,1.33-4.43,2-1.13a251.59,251.59,0,0,1,4,59.46c-1.09,18.39-2,17.19-2.53,12.3a168.79,168.79,0,0,1-.74-17.74l0-55.29"/><ellipse class="cls-1" cx="1149.46" cy="8.25" rx="0.24" ry="2.87"/><path class="cls-1" d="M3050.35,60.11l.1.14c.14-.09.27-4,.37-10.9.22-15.71.13-24.22,0-28.71-.11-4.08-.24-4.44-.35-1.14-.3,8.75-1,32.7-.72,59.46.19,18.39.35,17.19.45,12.29.08-4,.13-10.71.13-17.73V17.94"/><ellipse class="cls-1" cx="3050.36" cy="10.13" rx="0.04" ry="2.87"/><path class="cls-1" d="M3050.39,16.14V71.43c0,7-.05,13.69-.13,17.74-.1,4.89-.26,6.09-.45-12.3-.28-26.76.41-50.71.71-59.46.11-3.3.24-2.94.35,1.13.12,4.49.2,13,0,28.72-.09,6.87-.22,10.8-.36,10.89l-.1-.14"/><ellipse class="cls-1" cx="3050.39" cy="8.25" rx="0.04" ry="2.87"/><path class="cls-1" d="M2151.09,17.94l-.42,55.58a22.27,22.27,0,0,0,8,17.73c6.22,4.9,15.73,6.1,27.58-12.29,17.25-26.76-25.39-50.71-43.75-59.46a22.18,22.18,0,0,0-21.44,1.14c-7.25,4.49-12.25,13,1.1,28.71a30,30,0,0,0,22.45,10.9l6.1-.14"/><ellipse class="cls-1" cx="2150.33" cy="10.13" rx="2.57" ry="2.87"/><path class="cls-1" d="M2147.89,58l-6.1.14a30,30,0,0,1-22.45-10.89C2106,31.54,2111,23,2118.24,18.54a22.21,22.21,0,0,1,21.44-1.13c18.36,8.75,61,32.7,43.75,59.46-11.85,18.39-21.36,17.19-27.58,12.3a22.33,22.33,0,0,1-8-17.74l.43-55.29"/><ellipse class="cls-1" cx="2148.64" cy="8.25" rx="2.57" ry="2.87"/><path class="cls-1" d="M2250.06,17.94l-.39,55.58c-.06,7,2.67,13.69,7.41,17.73,5.75,4.9,14.54,6.1,25.49-12.29,15.95-26.76-23.47-50.71-40.44-59.46a19.17,19.17,0,0,0-19.82,1.14c-6.7,4.49-11.32,13,1,28.71,5.42,6.88,12.9,10.81,20.76,10.9l5.63-.14"/><ellipse class="cls-1" cx="2249.35" cy="10.13" rx="2.37" ry="2.87"/><path class="cls-1" d="M2247.1,58l-5.64.14c-7.85-.09-15.33-4-20.75-10.89-12.34-15.72-7.72-24.23-1-28.72a19.19,19.19,0,0,1,19.82-1.13c17,8.75,56.39,32.7,40.44,59.46-10.95,18.39-19.74,17.19-25.49,12.3-4.74-4-7.47-10.72-7.42-17.74l.4-55.29"/><ellipse class="cls-1" cx="2247.8" cy="8.25" rx="2.37" ry="2.87"/><path class="cls-1" d="M2350,17.94l-.34,55.58c0,7,2.31,13.69,6.41,17.73,5,4.9,12.55,6.1,22-12.29,13.77-26.76-20.27-50.71-34.92-59.46A14.68,14.68,0,0,0,2326,20.64c-5.78,4.49-9.77,13,.88,28.71,4.68,6.88,11.14,10.81,17.92,10.9l4.87-.14"/><ellipse class="cls-1" cx="2349.39" cy="10.13" rx="2.05" ry="2.87"/><path class="cls-1" d="M2347.45,58l-4.87.14c-6.78-.09-13.24-4-17.92-10.89C2314,31.54,2318,23,2323.78,18.54a14.68,14.68,0,0,1,17.11-1.13c14.66,8.75,48.7,32.7,34.93,59.46-9.46,18.39-17.06,17.19-22,12.3-4.09-4-6.45-10.72-6.4-17.74l.34-55.29"/><ellipse class="cls-1" cx="2348.05" cy="8.25" rx="2.05" ry="2.87"/><path class="cls-1" d="M2449.93,17.94l-.27,55.58c0,7,1.87,13.69,5.19,17.73,4,4.9,10.17,6.1,17.84-12.29,11.16-26.76-16.43-50.71-28.3-59.46-4.48-3.3-9.61-2.94-13.87,1.14-4.69,4.49-7.93,13,.71,28.71,3.79,6.88,9,10.81,14.52,10.9l3.95-.14"/><ellipse class="cls-1" cx="2449.44" cy="10.13" rx="1.66" ry="2.87"/><path class="cls-1" d="M2447.86,58l-3.94.14c-5.49-.09-10.73-4-14.52-10.89-8.64-15.72-5.41-24.23-.72-28.72,4.27-4.07,9.39-4.43,13.87-1.13,11.88,8.75,39.46,32.7,28.31,59.46-7.67,18.39-13.82,17.19-17.85,12.3-3.31-4-5.23-10.72-5.18-17.74l.27-55.29"/><ellipse class="cls-1" cx="2448.35" cy="8.25" rx="1.66" ry="2.87"/><path class="cls-1" d="M2550.38,17.94l-.22,55.58c0,7,1.54,13.69,4.28,17.73,3.31,4.9,8.39,6.1,14.71-12.29,9.2-26.76-13.55-50.71-23.34-59.46-3.69-3.3-7.92-2.94-11.44,1.14-3.86,4.49-6.53,13,.59,28.71,3.13,6.88,7.45,10.81,12,10.9l3.25-.14"/><ellipse class="cls-1" cx="2549.98" cy="10.13" rx="1.37" ry="2.87"/><path class="cls-1" d="M2548.68,58l-3.25.14c-4.53-.09-8.85-4-12-10.89-7.12-15.72-4.46-24.23-.59-28.72,3.52-4.07,7.74-4.43,11.44-1.13,9.79,8.75,32.54,32.7,23.34,59.46-6.33,18.39-11.4,17.19-14.72,12.3-2.73-4-4.31-10.72-4.27-17.74l.22-55.29"/><ellipse class="cls-1" cx="2549.08" cy="8.25" rx="1.37" ry="2.87"/><path class="cls-1" d="M2649.83,17.94l-.17,55.58c0,7,1.21,13.69,3.36,17.73,2.61,4.9,6.61,6.1,11.58-12.29,7.25-26.76-10.66-50.71-18.37-59.46-2.9-3.3-6.23-2.94-9,1.14-3,4.49-5.14,13,.46,28.71,2.46,6.88,5.86,10.81,9.43,10.9l2.56-.14"/><ellipse class="cls-1" cx="2649.51" cy="10.13" rx="1.08" ry="2.87"/><path class="cls-1" d="M2648.49,58l-2.56.14c-3.57-.09-7-4-9.43-10.89-5.6-15.72-3.5-24.23-.46-28.72,2.77-4.07,6.09-4.43,9-1.13,7.71,8.75,25.62,32.7,18.37,59.46-5,18.39-9,17.19-11.58,12.3-2.15-4-3.39-10.72-3.36-17.74l.17-55.29"/><ellipse class="cls-1" cx="2648.81" cy="8.25" rx="1.08" ry="2.87"/><path class="cls-1" d="M2749.78,17.94l-.13,55.58c0,7,.85,13.69,2.36,17.73,1.83,4.9,4.62,6.1,8.1-12.29,5.07-26.76-7.46-50.71-12.85-59.46-2-3.3-4.36-2.94-6.3,1.14-2.13,4.49-3.6,13,.32,28.71,1.73,6.88,4.1,10.81,6.6,10.9l1.79-.14"/><ellipse class="cls-1" cx="2749.55" cy="10.13" rx="0.75" ry="2.87"/><path class="cls-1" d="M2748.84,58l-1.79.14c-2.5-.09-4.88-4-6.6-10.89-3.92-15.72-2.45-24.23-.32-28.72,1.93-4.07,4.26-4.43,6.3-1.13,5.39,8.75,17.92,32.7,12.85,59.46-3.48,18.39-6.28,17.19-8.1,12.3-1.51-4-2.38-10.72-2.36-17.74l.12-55.29"/><ellipse class="cls-1" cx="2749.06" cy="8.25" rx="0.75" ry="2.87"/><path class="cls-1" d="M2849.72,17.94l-.07,55.58A95.12,95.12,0,0,0,2851,91.25c1,4.9,2.63,6.1,4.62-12.29,2.89-26.76-4.26-50.71-7.34-59.46-1.16-3.3-2.49-2.94-3.59,1.14-1.22,4.49-2.05,13,.18,28.71,1,6.88,2.34,10.81,3.77,10.9l1-.14"/><ellipse class="cls-1" cx="2849.59" cy="10.13" rx="0.43" ry="2.87"/><path class="cls-1" d="M2849.19,58l-1,.14c-1.42-.09-2.78-4-3.76-10.89-2.24-15.72-1.4-24.23-.19-28.72,1.11-4.07,2.44-4.43,3.6-1.13,3.08,8.75,10.23,32.7,7.33,59.46-2,18.39-3.58,17.19-4.62,12.3a94.59,94.59,0,0,1-1.34-17.74l.07-55.29"/><ellipse class="cls-1" cx="2849.31" cy="8.25" rx="0.43" ry="2.87"/><path class="cls-1" d="M2949.69,17.94l0,55.58a171.23,171.23,0,0,0,.74,17.73c.57,4.9,1.44,6.1,2.53-12.29a251.59,251.59,0,0,0-4-59.46c-.64-3.3-1.37-2.94-2,1.14-.67,4.49-1.13,13,.1,28.71.54,6.88,1.28,10.81,2.06,10.9l.56-.14"/><ellipse class="cls-1" cx="2949.62" cy="10.13" rx="0.24" ry="2.87"/><path class="cls-1" d="M2949.39,58l-.56.14c-.78-.09-1.52-4-2.06-10.89-1.23-15.72-.77-24.23-.1-28.72.6-4.07,1.33-4.43,2-1.13a251.59,251.59,0,0,1,4,59.46c-1.09,18.39-2,17.19-2.53,12.3a168.79,168.79,0,0,1-.74-17.74l0-55.29"/><ellipse class="cls-1" cx="2949.46" cy="8.25" rx="0.24" ry="2.87"/><path class="cls-1" d="M4050,60.11l6.82.14a35.17,35.17,0,0,0,25.12-10.9c14.93-15.71,9.34-24.22,1.23-28.71a27.4,27.4,0,0,0-24-1.14c-20.54,8.75-68.24,32.7-48.94,59.46,13.26,18.39,23.9,17.19,30.85,12.29a21.35,21.35,0,0,0,9-17.73l-.47-55.58"/><circle class="cls-1" cx="4050.42" cy="10.13" r="2.87"/><path class="cls-1" d="M4052.73,16.14l.48,55.29a21.42,21.42,0,0,1-9,17.74c-6.95,4.89-17.59,6.09-30.85-12.3-19.29-26.76,28.41-50.71,48.94-59.46a27.44,27.44,0,0,1,24,1.13c8.11,4.49,13.7,13-1.23,28.72A35.2,35.2,0,0,1,4060,58.15l-6.82-.14"/><circle class="cls-1" cx="4052.3" cy="8.25" r="2.87"/><path class="cls-1" d="M3949.27,60.11l6.1.14a30,30,0,0,0,22.45-10.9c13.35-15.71,8.35-24.22,1.1-28.71a22.18,22.18,0,0,0-21.44-1.14c-18.36,8.75-61,32.7-43.75,59.46,11.85,18.39,21.36,17.19,27.58,12.29a22.27,22.27,0,0,0,8-17.73l-.42-55.58"/><ellipse class="cls-1" cx="3949.67" cy="10.13" rx="2.57" ry="2.87"/><path class="cls-1" d="M3951.74,16.14l.43,55.29a22.33,22.33,0,0,1-8,17.74c-6.22,4.89-15.73,6.09-27.58-12.3-17.25-26.76,25.39-50.71,43.75-59.46a22.21,22.21,0,0,1,21.44,1.13c7.25,4.49,12.24,13-1.1,28.72a30,30,0,0,1-22.45,10.89l-6.1-.14"/><ellipse class="cls-1" cx="3951.36" cy="8.25" rx="2.57" ry="2.87"/><path class="cls-1" d="M3850.28,60.11l5.63.14c7.86-.09,15.34-4,20.76-10.9,12.34-15.71,7.72-24.22,1-28.71a19.17,19.17,0,0,0-19.82-1.14c-17,8.75-56.39,32.7-40.44,59.46,11,18.39,19.74,17.19,25.49,12.29,4.74-4,7.47-10.71,7.41-17.73l-.39-55.58"/><ellipse class="cls-1" cx="3850.65" cy="10.13" rx="2.37" ry="2.87"/><path class="cls-1" d="M3852.56,16.14l.4,55.29c.05,7-2.68,13.69-7.42,17.74-5.75,4.89-14.54,6.09-25.49-12.3-16-26.76,23.47-50.71,40.44-59.46a19.19,19.19,0,0,1,19.82,1.13c6.7,4.49,11.32,13-1,28.72-5.42,6.87-12.9,10.8-20.75,10.89L3852.9,58"/><ellipse class="cls-1" cx="3852.2" cy="8.25" rx="2.37" ry="2.87"/><path class="cls-1" d="M3750.29,60.11l4.87.14c6.78-.09,13.24-4,17.92-10.9,10.65-15.71,6.66-24.22.88-28.71a14.68,14.68,0,0,0-17.12-1.14c-14.65,8.75-48.69,32.7-34.92,59.46,9.46,18.39,17,17.19,22,12.29,4.1-4,6.46-10.71,6.41-17.73L3750,17.94"/><ellipse class="cls-1" cx="3750.61" cy="10.13" rx="2.05" ry="2.87"/><path class="cls-1" d="M3752.26,16.14l.34,55.29c.05,7-2.31,13.69-6.4,17.74-5,4.89-12.56,6.09-22-12.3-13.77-26.76,20.27-50.71,34.93-59.46a14.68,14.68,0,0,1,17.11,1.13c5.79,4.49,9.77,13-.88,28.72-4.68,6.87-11.14,10.8-17.92,10.89l-4.87-.14"/><ellipse class="cls-1" cx="3751.95" cy="8.25" rx="2.05" ry="2.87"/><path class="cls-1" d="M3650.3,60.11l3.95.14c5.49-.09,10.73-4,14.52-10.9,8.64-15.71,5.4-24.22.71-28.71-4.26-4.08-9.39-4.44-13.87-1.14-11.87,8.75-39.46,32.7-28.3,59.46,7.67,18.39,13.82,17.19,17.84,12.29,3.32-4,5.23-10.71,5.19-17.73l-.27-55.58"/><ellipse class="cls-1" cx="3650.56" cy="10.13" rx="1.66" ry="2.87"/><path class="cls-1" d="M3651.9,16.14l.27,55.29c0,7-1.87,13.69-5.18,17.74-4,4.89-10.18,6.09-17.85-12.3-11.15-26.76,16.43-50.71,28.31-59.46,4.48-3.3,9.6-2.94,13.87,1.13,4.69,4.49,7.92,13-.72,28.72-3.79,6.87-9,10.8-14.52,10.89l-3.94-.14"/><ellipse class="cls-1" cx="3651.65" cy="8.25" rx="1.66" ry="2.87"/><path class="cls-1" d="M3549.81,60.11l3.25.14c4.53-.09,8.85-4,12-10.9,7.12-15.71,4.45-24.22.59-28.71-3.52-4.08-7.75-4.44-11.44-1.14-9.79,8.75-32.54,32.7-23.34,59.46,6.32,18.39,11.4,17.19,14.71,12.29,2.74-4,4.32-10.71,4.28-17.73l-.22-55.58"/><ellipse class="cls-1" cx="3550.02" cy="10.13" rx="1.37" ry="2.87"/><path class="cls-1" d="M3551.13,16.14l.22,55.29c0,7-1.54,13.69-4.27,17.74-3.32,4.89-8.39,6.09-14.72-12.3-9.2-26.76,13.55-50.71,23.34-59.46,3.7-3.3,7.92-2.94,11.44,1.13,3.87,4.49,6.53,13-.59,28.72-3.13,6.87-7.45,10.8-12,10.89l-3.25-.14"/><ellipse class="cls-1" cx="3550.92" cy="8.25" rx="1.37" ry="2.87"/><path class="cls-1" d="M3450.32,60.11l2.56.14c3.57-.09,7-4,9.43-10.9,5.6-15.71,3.5-24.22.46-28.71-2.77-4.08-6.1-4.44-9-1.14-7.71,8.75-25.62,32.7-18.37,59.46,5,18.39,9,17.19,11.58,12.29,2.15-4,3.39-10.71,3.36-17.73l-.17-55.58"/><ellipse class="cls-1" cx="3450.49" cy="10.13" rx="1.08" ry="2.87"/><path class="cls-1" d="M3451.36,16.14l.17,55.29c0,7-1.21,13.69-3.36,17.74-2.61,4.89-6.61,6.09-11.58-12.3-7.25-26.76,10.66-50.71,18.37-59.46,2.91-3.3,6.23-2.94,9,1.13,3,4.49,5.14,13-.46,28.72-2.46,6.87-5.86,10.8-9.43,10.89l-2.56-.14"/><ellipse class="cls-1" cx="3451.19" cy="8.25" rx="1.08" ry="2.87"/><path class="cls-1" d="M3350.33,60.11l1.79.14c2.5-.09,4.87-4,6.6-10.9,3.92-15.71,2.45-24.22.32-28.71-1.94-4.08-4.26-4.44-6.3-1.14-5.39,8.75-17.92,32.7-12.85,59.46,3.48,18.39,6.27,17.19,8.1,12.29,1.51-4,2.38-10.71,2.36-17.73l-.13-55.58"/><ellipse class="cls-1" cx="3350.45" cy="10.13" rx="0.75" ry="2.87"/><path class="cls-1" d="M3351.06,16.14l.12,55.29c0,7-.85,13.69-2.36,17.74-1.82,4.89-4.62,6.09-8.1-12.3-5.07-26.76,7.46-50.71,12.85-59.46,2-3.3,4.37-2.94,6.3,1.13,2.13,4.49,3.6,13-.32,28.72-1.72,6.87-4.1,10.8-6.6,10.89l-1.79-.14"/><ellipse class="cls-1" cx="3350.94" cy="8.25" rx="0.75" ry="2.87"/><path class="cls-1" d="M3250.34,60.11l1,.14c1.43-.09,2.78-4,3.77-10.9,2.23-15.71,1.4-24.22.18-28.71-1.1-4.08-2.43-4.44-3.59-1.14-3.08,8.75-10.23,32.7-7.34,59.46,2,18.39,3.58,17.19,4.62,12.29a95.12,95.12,0,0,0,1.35-17.73l-.07-55.58"/><ellipse class="cls-1" cx="3250.41" cy="10.13" rx="0.43" ry="2.87"/><path class="cls-1" d="M3250.75,16.14l.07,55.29a94.59,94.59,0,0,1-1.34,17.74c-1,4.89-2.64,6.09-4.62-12.3-2.9-26.76,4.25-50.71,7.33-59.46,1.16-3.3,2.49-2.94,3.6,1.13,1.21,4.49,2.05,13-.19,28.72-1,6.87-2.34,10.8-3.76,10.89l-1-.14"/><ellipse class="cls-1" cx="3250.69" cy="8.25" rx="0.43" ry="2.87"/><path class="cls-1" d="M3150.35,60.11l.56.14c.78-.09,1.52-4,2.06-10.9,1.23-15.71.77-24.22.1-28.71-.6-4.08-1.33-4.44-2-1.14a251.59,251.59,0,0,0-4,59.46c1.09,18.39,2,17.19,2.53,12.29a171.23,171.23,0,0,0,.74-17.73l0-55.58"/><ellipse class="cls-1" cx="3150.38" cy="10.13" rx="0.24" ry="2.87"/><path class="cls-1" d="M3150.57,16.14l0,55.29a168.79,168.79,0,0,1-.74,17.74c-.57,4.89-1.44,6.09-2.53-12.3a251.59,251.59,0,0,1,4-59.46c.64-3.3,1.37-2.94,2,1.13.67,4.49,1.13,13-.1,28.72-.54,6.87-1.28,10.8-2.06,10.89l-.56-.14"/><ellipse class="cls-1" cx="3150.54" cy="8.25" rx="0.24" ry="2.87"/><rect class="cls-2" width="100" height="100"/><rect class="cls-2" x="100" width="100" height="100"/><rect class="cls-2" x="200" width="100" height="100"/><rect class="cls-2" x="300" width="100" height="100"/><rect class="cls-2" x="400" width="100" height="100"/><rect class="cls-2" x="500" width="100" height="100"/><rect class="cls-2" x="600" width="100" height="100"/><rect class="cls-2" x="700" width="100" height="100"/><rect class="cls-2" x="800" width="100" height="100"/><rect class="cls-2" x="900" width="100" height="100"/><rect class="cls-2" x="1000" width="100" height="100"/><rect class="cls-2" x="2000" width="100" height="100" transform="translate(4100 100) rotate(-180)"/><rect class="cls-2" x="1900" width="100" height="100" transform="translate(3900 100) rotate(-180)"/><rect class="cls-2" x="1800" width="100" height="100" transform="translate(3700 100) rotate(-180)"/><rect class="cls-2" x="1700" width="100" height="100" transform="translate(3500 100) rotate(-180)"/><rect class="cls-2" x="1600" width="100" height="100" transform="translate(3300 100) rotate(-180)"/><rect class="cls-2" x="1500" width="100" height="100" transform="translate(3100 100) rotate(-180)"/><rect class="cls-2" x="1400" width="100" height="100" transform="translate(2900 100) rotate(-180)"/><rect class="cls-2" x="1300" width="100" height="100" transform="translate(2700 100) rotate(-180)"/><rect class="cls-2" x="1200" width="100" height="100" transform="translate(2500 100) rotate(-180)"/><rect class="cls-2" x="1100" width="100" height="100" transform="translate(2300 100) rotate(-180)"/><rect class="cls-2" x="3000" width="100" height="100"/><rect class="cls-2" x="2100" width="100" height="100" transform="translate(4300 100) rotate(-180)"/><rect class="cls-2" x="2200" width="100" height="100" transform="translate(4500 100) rotate(-180)"/><rect class="cls-2" x="2300" width="100" height="100" transform="translate(4700 100) rotate(-180)"/><rect class="cls-2" x="2400" width="100" height="100" transform="translate(4900 100) rotate(-180)"/><rect class="cls-2" x="2500" width="100" height="100" transform="translate(5100 100) rotate(-180)"/><rect class="cls-2" x="2600" width="100" height="100" transform="translate(5300 100) rotate(-180)"/><rect class="cls-2" x="2700" width="100" height="100" transform="translate(5500 100) rotate(-180)"/><rect class="cls-2" x="2800" width="100" height="100" transform="translate(5700 100) rotate(-180)"/><rect class="cls-2" x="2900" width="100" height="100" transform="translate(5900 100) rotate(-180)"/><rect class="cls-2" x="4000" width="100" height="100"/><rect class="cls-2" x="3900" width="100" height="100"/><rect class="cls-2" x="3800" width="100" height="100"/><rect class="cls-2" x="3700" width="100" height="100"/><rect class="cls-2" x="3600" width="100" height="100"/><rect class="cls-2" x="3500" width="100" height="100"/><rect class="cls-2" x="3400" width="100" height="100"/><rect class="cls-2" x="3300" width="100" height="100"/><rect class="cls-2" x="3200" width="100" height="100"/><rect class="cls-2" x="3100" width="100" height="100"/></svg>
