<svg id="Layer_1" data-name="Layer 1" xmlns="http://www.w3.org/2000/svg" width="470" height="476" viewBox="0 0 470 476"><defs><style>.cls-1{fill:none;stroke:#000;stroke-linecap:round;stroke-miterlimit:10;stroke-width:6px;}</style></defs><title>Artboard 1</title><path class="cls-1" d="M238.79,285.84l32.62.67a168.19,168.19,0,0,0,120.15-52.13C463,159.2,436.25,118.48,397.45,97c-35.26-19.5-77.67-21.23-114.74-5.44C184.47,133.44-43.72,248,48.58,376,112,464,162.91,458.25,196.18,434.81c27.44-19.34,43.26-51.25,42.92-84.83L236.83,85.83"/><circle class="cls-1" cx="239.17" cy="46.73" r="13.73"/><path class="cls-1" d="M249.83,75.83,252.1,340c.34,33.58-15.48,65.49-42.92,84.83C175.91,448.25,125,454,61.58,366-30.72,238,197.47,123.44,295.71,81.59,332.78,65.8,375.19,67.53,410.45,87c38.8,21.45,65.53,62.17-5.89,137.35a168.19,168.19,0,0,1-120.15,52.13l-32.62-.67"/><circle class="cls-1" cx="248.17" cy="37.73" r="13.73"/></svg>
