<?xml version="1.0" standalone="no"?>
<!DOCTYPE svg PUBLIC "-//W3C//DTD SVG 20010904//EN"
 "http://www.w3.org/TR/2001/REC-SVG-20010904/DTD/svg10.dtd">
<svg version="1.0" xmlns="http://www.w3.org/2000/svg"
 width="952.000000pt" height="952.000000pt" viewBox="0 0 952.000000 952.000000"
 preserveAspectRatio="xMidYMid meet">
<metadata>
Created by potrace 1.11, written by Peter Selinger 2001-2013
</metadata>
<g transform="translate(0.000000,952.000000) scale(0.100000,-0.100000)"
fill="#000000" stroke="none">
<path d="M4928 9085 c-21 -8 -38 -11 -38 -7 0 4 -4 2 -8 -4 -4 -5 -23 -20 -42
-31 -44 -27 -82 -68 -107 -113 -11 -19 -32 -41 -48 -49 -44 -21 -119 -101
-146 -156 -21 -43 -24 -64 -23 -145 0 -85 4 -100 28 -145 31 -54 94 -124 113
-125 6 0 13 -4 15 -9 2 -5 30 -18 63 -29 83 -28 172 -25 246 10 62 30 137 99
151 139 5 14 26 35 46 47 58 33 142 119 142 145 0 8 3 17 7 21 30 30 37 168
12 244 -25 76 -103 157 -186 194 -58 26 -171 32 -225 13z m190 -129 c105 -54
146 -182 93 -288 -26 -51 -36 -53 -44 -11 -13 69 -33 107 -80 156 -55 56 -129
96 -179 97 -28 0 -21 24 12 43 17 10 30 15 30 12 0 -3 8 -1 18 5 24 14 111 6
150 -14z m-175 -182 c58 -31 101 -93 111 -164 7 -48 -3 -60 -44 -55 -67 8 -97
22 -136 60 -45 45 -78 145 -58 176 8 14 88 2 127 -17z m-245 -81 c6 -45 40
-111 80 -151 43 -44 95 -82 120 -87 9 -2 18 -4 20 -5 1 -2 7 -4 12 -5 6 -1 11
-3 13 -5 1 -1 10 -3 20 -5 31 -6 29 -10 -15 -35 -31 -17 -58 -24 -103 -24 -90
0 -150 36 -189 114 -32 65 -33 119 -2 186 27 59 37 63 44 17z"/>
<path d="M6955 8162 c-1 -2 -43 -5 -91 -7 -100 -5 -172 -12 -224 -21 -19 -3
-44 -7 -55 -8 -55 -9 -103 -17 -125 -22 -14 -3 -36 -7 -50 -10 -35 -7 -261
-73 -285 -83 -11 -5 -54 -21 -95 -36 -41 -16 -97 -38 -125 -51 -169 -76 -261
-116 -270 -118 -5 -1 -51 -22 -102 -45 -51 -24 -95 -42 -99 -41 -4 1 -10 -2
-13 -7 -5 -7 -54 -33 -71 -38 -3 -1 -31 -13 -62 -28 -32 -15 -82 -38 -112 -52
l-54 -24 -1 87 c-4 393 -3 387 -46 398 -31 8 -71 -11 -73 -34 -1 -9 -2 -128
-3 -265 l-1 -248 -69 -34 -69 -35 -1 132 c-1 244 -3 259 -24 274 -38 28 -93 8
-96 -34 -1 -9 -1 -110 0 -224 l1 -207 -143 -72 c-78 -39 -164 -84 -192 -99
-27 -15 -102 -55 -165 -89 -63 -34 -122 -66 -130 -71 -8 -5 -104 -60 -213
-122 -109 -62 -214 -123 -235 -136 -20 -12 -45 -25 -55 -28 -9 -4 -17 -10 -17
-14 0 -4 -11 -12 -25 -18 -38 -17 -290 -175 -293 -184 -2 -5 -8 -8 -13 -8 -8
0 -306 -196 -319 -210 -3 -3 -41 -30 -85 -60 -44 -30 -84 -58 -90 -62 -5 -5
-44 -33 -85 -63 -90 -66 -117 -87 -149 -114 -13 -12 -27 -21 -30 -21 -3 0 -21
-14 -40 -30 -18 -17 -37 -30 -40 -30 -3 0 -17 -10 -31 -23 -14 -12 -63 -52
-110 -87 -47 -36 -87 -67 -90 -70 -3 -3 -22 -18 -43 -33 -20 -16 -50 -39 -65
-52 -15 -14 -31 -28 -37 -33 -68 -54 -184 -154 -221 -189 -13 -13 -29 -23 -35
-23 -7 0 -9 -3 -6 -6 4 -4 -12 -22 -36 -40 -44 -35 -340 -333 -417 -420 -104
-118 -218 -263 -295 -374 -32 -47 -62 -87 -66 -90 -3 -3 -14 -18 -23 -35 -9
-16 -25 -43 -35 -60 -54 -89 -77 -132 -137 -255 -36 -74 -69 -143 -74 -152 -6
-10 -10 -22 -10 -27 0 -5 -5 -22 -12 -38 -6 -15 -12 -30 -13 -33 0 -3 -13 -41
-28 -85 -14 -44 -28 -91 -31 -105 -3 -14 -7 -34 -10 -45 -26 -115 -35 -162
-40 -220 -1 -17 -4 -35 -7 -40 -8 -14 -3 -369 5 -425 27 -178 65 -325 126
-480 65 -167 225 -450 327 -580 7 -8 46 -60 87 -115 42 -55 88 -115 103 -134
36 -44 135 -163 148 -177 6 -6 35 -39 65 -74 141 -162 357 -368 515 -490 39
-30 72 -57 75 -60 3 -3 46 -33 95 -65 50 -33 92 -62 95 -65 3 -3 21 -13 40
-24 19 -10 62 -33 95 -50 53 -29 106 -53 220 -101 26 -11 70 -27 85 -30 3 -1
25 -8 50 -15 25 -8 52 -15 60 -15 8 -1 25 -5 37 -9 13 -4 34 -9 48 -12 14 -2
37 -7 53 -10 67 -13 311 -20 387 -10 77 10 142 21 155 26 3 1 10 3 15 4 71 13
275 91 375 144 81 43 164 94 168 104 2 5 8 8 14 8 11 0 91 60 96 72 2 5 8 8
13 8 5 0 22 11 37 24 62 55 80 69 171 134 113 80 315 276 400 387 33 44 67 88
76 98 8 9 15 19 15 22 0 2 20 35 43 72 81 126 169 313 208 445 12 40 26 79 32
86 5 6 7 12 4 12 -3 0 -1 15 4 33 13 44 36 152 44 207 3 25 8 57 11 72 15 90
24 467 12 474 -4 3 -4 15 0 27 8 25 8 80 -1 94 -3 5 -2 26 3 46 4 20 5 37 1
37 -11 0 -8 620 4 621 5 0 129 2 275 3 235 3 315 7 425 21 17 2 53 6 80 10 28
3 61 8 75 10 14 3 36 8 50 10 14 3 39 8 55 10 17 3 38 8 47 11 9 3 27 7 40 10
13 3 34 7 48 10 38 9 41 10 90 23 25 7 53 15 63 17 11 2 25 8 31 14 7 5 15 7
18 5 7 -7 159 46 265 91 17 8 34 14 37 14 20 0 329 153 421 208 170 102 360
237 495 352 78 67 272 258 375 370 33 36 64 63 70 62 38 -13 50 -8 108 52 65
67 77 79 172 192 91 107 139 165 154 188 8 12 17 23 20 26 16 14 181 248 181
256 0 3 13 24 28 47 40 58 122 209 156 287 16 36 35 79 42 95 44 98 98 309
110 431 13 121 5 271 -17 359 -5 22 -11 49 -13 60 -7 37 -45 136 -76 197 -79
155 -186 287 -346 425 -50 44 -230 173 -240 173 -4 0 -26 13 -50 30 -54 36
-290 151 -356 174 -26 8 -56 20 -65 25 -19 9 -109 40 -133 46 -8 2 -60 16
-114 30 -55 15 -111 29 -125 31 -14 3 -48 9 -76 14 -134 25 -517 55 -530 42z
m345 -136 c14 -4 48 -9 75 -12 28 -3 61 -8 75 -11 14 -3 36 -7 50 -9 14 -1 46
-8 70 -14 25 -7 54 -14 66 -16 12 -2 66 -18 120 -35 54 -17 104 -32 109 -33 6
-1 15 -5 21 -8 6 -4 33 -15 60 -24 65 -22 265 -119 332 -161 29 -18 57 -33 62
-33 6 0 10 -4 10 -10 0 -5 5 -10 11 -10 9 0 81 -46 119 -76 212 -172 306 -277
390 -436 40 -76 84 -188 74 -188 -3 0 -2 -6 3 -12 9 -15 8 -14 23 -93 11 -61
15 -240 6 -285 -3 -14 -8 -45 -10 -70 -11 -93 -65 -262 -127 -398 -21 -45 -38
-84 -39 -87 0 -3 -19 -38 -43 -77 -23 -40 -51 -90 -62 -110 -24 -46 -34 -41
-11 6 9 19 16 36 16 39 0 2 10 26 22 53 12 27 23 51 23 54 1 3 4 12 7 20 37
97 78 273 83 356 1 23 4 46 7 50 4 8 2 189 -2 189 -1 0 -3 18 -6 40 -2 22 -9
65 -16 95 -6 30 -12 57 -13 60 -12 59 -109 272 -126 278 -5 2 -9 9 -9 15 -1
29 -193 249 -281 322 -164 135 -366 255 -614 366 -26 11 -155 59 -175 65 -8 2
-71 20 -140 40 -69 19 -141 37 -160 40 -19 3 -51 9 -70 13 -33 9 -164 25 -290
36 -142 13 -396 4 -555 -20 -22 -3 -53 -8 -70 -10 -16 -3 -41 -7 -54 -10 -14
-2 -21 -1 -15 4 12 12 219 65 294 76 14 2 25 4 25 5 0 1 15 3 34 6 19 2 46 6
60 9 14 3 62 8 106 11 44 4 82 8 84 10 6 5 424 -4 451 -10z m-1070 -116 c0 -5
-5 -10 -11 -10 -5 0 -7 5 -4 10 3 6 8 10 11 10 2 0 4 -4 4 -10z m646 -75 c76
-3 155 -8 174 -10 70 -10 106 -15 155 -25 28 -5 61 -12 75 -14 74 -13 287 -75
360 -104 35 -15 63 -25 75 -27 25 -6 256 -121 315 -158 129 -79 140 -87 240
-166 72 -56 180 -161 232 -226 117 -144 203 -351 214 -515 1 -25 3 -47 4 -50
6 -14 4 -57 -3 -67 -4 -6 -4 -14 1 -17 4 -2 7 -17 5 -33 -5 -55 -13 -118 -18
-143 -2 -14 -7 -38 -11 -55 -8 -43 -63 -214 -80 -252 -7 -17 -14 -34 -14 -37
0 -9 -70 -148 -110 -221 -42 -75 -129 -216 -162 -260 -155 -209 -255 -334
-373 -465 -64 -72 -286 -291 -345 -340 -29 -25 -58 -50 -64 -56 -11 -11 -200
-150 -232 -171 -11 -7 -41 -28 -69 -46 -27 -19 -70 -45 -95 -59 -25 -14 -87
-49 -138 -77 -51 -29 -99 -54 -105 -55 -7 -1 -35 -14 -64 -29 -91 -47 -406
-165 -458 -172 -11 -1 -31 -7 -45 -13 -24 -11 -216 -55 -290 -67 -19 -3 -48
-8 -65 -12 -16 -3 -46 -8 -65 -9 -19 -1 -35 -3 -35 -4 0 -2 -42 -7 -126 -16
-80 -8 -563 -13 -591 -6 -14 3 -16 33 -18 280 -3 424 -7 917 -15 1842 -4 465
-8 964 -9 1110 l-1 265 60 30 c33 17 92 44 130 62 39 17 101 45 138 62 38 17
70 31 72 31 2 0 36 15 77 33 78 36 256 108 303 123 157 50 246 76 270 79 17 2
31 4 33 5 1 2 10 3 20 4 9 1 22 4 27 8 6 3 35 9 65 13 30 3 69 9 85 11 47 8
102 13 210 20 55 3 102 7 104 10 2 2 7 1 11 -1 4 -2 70 -7 146 -10z m-1872
-635 c2 -50 -1 -93 -6 -96 -4 -3 -5 -11 -1 -17 8 -13 9 -67 17 -1152 4 -418 8
-962 10 -1210 3 -247 5 -542 6 -655 l2 -205 -29 -2 c-15 -2 -35 -3 -43 -3 -8
0 -25 0 -37 0 -12 0 -24 4 -27 8 -3 5 -8 303 -10 663 -3 360 -8 917 -11 1239
-3 322 -7 783 -9 1026 l-4 440 66 31 c37 17 68 30 70 28 2 -2 5 -44 6 -95z
m-263 -67 c1 -54 7 -713 14 -1483 3 -366 8 -915 10 -1220 3 -305 7 -780 10
-1055 8 -942 6 -1105 -16 -1131 -6 -7 -6 -15 -1 -18 5 -3 -1 -50 -13 -108 -13
-57 -21 -106 -18 -110 2 -5 -1 -8 -6 -8 -6 0 -10 -3 -9 -7 8 -31 -84 -284
-143 -396 -49 -93 -93 -171 -99 -177 -3 -3 -18 -25 -35 -50 -16 -25 -41 -59
-55 -76 -14 -18 -36 -47 -50 -65 -56 -75 -207 -216 -260 -244 -169 -87 -300
-144 -300 -129 0 2 -10 -2 -22 -10 -13 -8 -26 -15 -31 -15 -4 0 -20 -2 -35 -5
-15 -4 -38 -9 -52 -12 -112 -24 -304 -33 -400 -20 -116 16 -135 19 -165 29
-11 3 -32 8 -46 11 -86 14 -329 116 -459 193 -54 31 -223 143 -230 152 -3 4
-21 18 -40 31 -19 13 -37 27 -40 30 -3 3 -21 18 -40 34 -236 193 -524 501
-745 796 -43 58 -90 121 -105 140 -65 86 -93 130 -172 267 -72 126 -118 225
-162 352 -33 95 -73 246 -82 309 -15 111 -18 166 -18 307 2 368 104 692 355
1120 13 22 26 42 30 45 3 3 11 14 17 25 8 16 82 121 119 170 5 6 28 36 52 69
24 32 51 66 60 75 9 10 34 39 56 67 121 148 463 490 635 633 14 12 34 29 45
39 11 10 43 36 70 57 28 22 52 43 55 46 3 3 37 29 75 57 39 28 75 55 80 59 21
17 113 82 190 135 187 128 246 168 251 168 5 0 125 79 159 105 10 8 25 15 31
15 7 0 14 4 16 8 2 5 82 55 178 112 96 57 186 110 200 119 59 37 174 101 181
101 4 0 14 6 21 13 15 14 83 52 178 99 36 18 67 36 70 39 3 3 64 36 135 74 72
37 136 72 143 78 6 5 12 6 12 2 0 -4 6 -2 14 4 16 14 367 190 379 190 4 1 7
-16 8 -36z m-3705 -2765 c-30 -46 -139 -322 -151 -381 -2 -10 -13 -50 -24 -90
-40 -149 -55 -274 -54 -467 0 -102 3 -210 7 -240 6 -48 50 -257 59 -285 2 -5
7 -23 12 -40 4 -16 10 -34 14 -40 3 -5 7 -18 8 -27 5 -34 106 -256 159 -353
66 -119 149 -246 216 -332 26 -35 48 -67 48 -72 0 -5 4 -11 8 -13 5 -1 42 -46
82 -98 84 -107 89 -114 110 -137 8 -9 27 -32 42 -51 106 -133 389 -420 527
-534 75 -63 202 -158 210 -158 5 0 11 -4 13 -8 9 -22 211 -143 343 -206 161
-77 340 -135 465 -150 25 -3 56 -8 70 -11 35 -8 298 -8 338 -1 46 9 32 -10
-15 -20 -45 -9 -41 -8 -76 -22 -15 -7 -31 -11 -35 -11 -4 1 -9 0 -12 -1 -14
-5 -94 -18 -150 -25 -44 -5 -233 -6 -280 -1 -118 12 -250 44 -375 92 -98 38
-258 115 -263 127 -2 4 -8 7 -14 7 -34 0 -371 247 -497 364 -56 51 -246 242
-286 287 -105 117 -209 241 -299 359 -36 47 -69 90 -73 95 -49 63 -183 253
-183 259 0 2 -19 35 -42 72 -33 56 -129 244 -134 264 0 3 -4 12 -7 20 -11 27
-76 220 -77 228 0 4 -5 23 -10 42 -10 39 -21 102 -25 140 -1 14 -3 25 -4 25
-13 0 -20 369 -8 450 3 22 6 40 7 40 1 0 3 17 5 38 2 21 6 50 10 65 4 15 9 38
12 52 14 76 77 273 120 370 63 145 200 400 215 400 5 0 2 -10 -6 -22z m4000
-973 c1 -187 2 -344 4 -350 1 -5 1 -12 0 -15 -5 -15 -5 -78 1 -95 3 -11 3 -32
-2 -47 -4 -15 -4 -30 0 -32 8 -5 5 -81 -4 -96 -3 -6 -2 -10 3 -10 6 0 7 -14 2
-35 -4 -19 -4 -35 0 -35 4 0 4 -18 0 -39 -4 -25 -3 -44 3 -50 6 -6 7 -11 1
-11 -5 0 -10 -17 -11 -38 -4 -72 -13 -144 -28 -222 -3 -14 -8 -36 -10 -50 -9
-45 -14 -64 -30 -120 -9 -30 -17 -60 -19 -67 -1 -7 -5 -16 -9 -19 -4 -4 -7
-13 -7 -20 0 -7 -5 -25 -12 -41 -6 -15 -12 -34 -14 -40 -5 -26 -127 -269 -155
-310 -16 -23 -29 -46 -29 -52 0 -6 -4 -11 -10 -11 -10 0 0 33 22 73 7 12 13
24 14 27 0 3 3 12 7 20 14 38 49 136 53 150 2 8 15 58 28 110 25 94 34 137 41
195 2 17 7 46 10 65 17 103 18 211 11 1058 l-4 453 71 -3 71 -3 2 -340z"/>
</g>
</svg>
