<svg id="Layer_1" data-name="Layer 1" xmlns="http://www.w3.org/2000/svg" xmlns:xlink="http://www.w3.org/1999/xlink" width="900" height="750" viewBox="0 0 900 750"><defs><style>.cls-1{fill:url(#linear-gradient);}.cls-2{fill:url(#linear-gradient-2);}.cls-3{fill:url(#linear-gradient-3);}.cls-4{fill:url(#linear-gradient-4);}.cls-5{fill:url(#linear-gradient-5);}.cls-6{fill:url(#linear-gradient-6);}.cls-7{fill:url(#radial-gradient);}.cls-8{fill:url(#radial-gradient-2);}.cls-9{fill:url(#radial-gradient-3);}.cls-10{fill:url(#linear-gradient-7);}.cls-11,.cls-20{fill:none;stroke-miterlimit:10;}.cls-11{stroke:#050402;}.cls-12{fill:url(#linear-gradient-8);}.cls-13{fill:url(#linear-gradient-9);}.cls-14{fill:url(#radial-gradient-4);}.cls-15{fill:url(#radial-gradient-5);}.cls-16,.cls-17{fill:#fff;}.cls-16{stroke:#fff;stroke-linejoin:round;stroke-width:17px;}.cls-16,.cls-20{stroke-linecap:round;}.cls-18{fill:url(#radial-gradient-6);}.cls-19{fill:url(#radial-gradient-7);}.cls-20{stroke:#000;stroke-width:5px;}</style><linearGradient id="linear-gradient" x1="414.36" y1="164.05" x2="545.84" y2="164.05" gradientTransform="translate(28.97 -31.2) rotate(-1.16)" gradientUnits="userSpaceOnUse"><stop offset="0" stop-color="#754c24"/><stop offset="0.29" stop-color="#8c633a"/><stop offset="0.61" stop-color="#9f754c"/><stop offset="0.83" stop-color="#a67c52"/><stop offset="0.89" stop-color="#bb9055"/><stop offset="0.95" stop-color="#cda158"/><stop offset="1" stop-color="#d3a759"/></linearGradient><linearGradient id="linear-gradient-2" x1="518.17" y1="-213.69" x2="518.17" y2="-341.4" gradientTransform="translate(-275.06 293.42) rotate(8.93)" gradientUnits="userSpaceOnUse"><stop offset="0" stop-color="#754c24"/><stop offset="0.34" stop-color="#8c633a"/><stop offset="0.71" stop-color="#9f754c"/><stop offset="0.97" stop-color="#a67c52"/><stop offset="0.98" stop-color="#bb9055"/><stop offset="0.99" stop-color="#cda158"/><stop offset="1" stop-color="#d3a759"/></linearGradient><linearGradient id="linear-gradient-3" x1="462.43" y1="-124.39" x2="396.9" y2="-189.92" gradientTransform="translate(-173.67 199.17) rotate(5.92)" gradientUnits="userSpaceOnUse"><stop offset="0" stop-color="#b26295"/><stop offset="0.02" stop-color="#b46497"/><stop offset="0.33" stop-color="#d190c3"/><stop offset="0.6" stop-color="#e6b0e2"/><stop offset="0.84" stop-color="#f2c3f5"/><stop offset="1" stop-color="#f7cafc"/></linearGradient><linearGradient id="linear-gradient-4" x1="483.81" y1="135.4" x2="570.63" y2="85.28" gradientTransform="translate(-2.94 5.9) rotate(0.02)" xlink:href="#linear-gradient-3"/><linearGradient id="linear-gradient-5" x1="490.85" y1="612.98" x2="490.85" y2="513.23" gradientUnits="userSpaceOnUse"><stop offset="0" stop-color="#d3a759"/><stop offset="0.16" stop-color="#ab8243"/><stop offset="0.33" stop-color="#855f2f"/><stop offset="0.5" stop-color="#68441f"/><stop offset="0.67" stop-color="#533114"/><stop offset="0.84" stop-color="#46250d"/><stop offset="1" stop-color="#42210b"/></linearGradient><linearGradient id="linear-gradient-6" x1="360.22" y1="613.46" x2="360.22" y2="513.7" gradientUnits="userSpaceOnUse"><stop offset="0" stop-color="#d3a759"/><stop offset="0.04" stop-color="#c79c52"/><stop offset="0.19" stop-color="#9e763d"/><stop offset="0.34" stop-color="#7d582b"/><stop offset="0.49" stop-color="#63401d"/><stop offset="0.65" stop-color="#512e13"/><stop offset="0.82" stop-color="#46240d"/><stop offset="1" stop-color="#42210b"/></linearGradient><radialGradient id="radial-gradient" cx="450" cy="599.35" r="318.83" gradientTransform="translate(0 479.48) scale(1 0.2)" gradientUnits="userSpaceOnUse"><stop offset="0" stop-opacity="0.5"/><stop offset="1" stop-color="#8c6239" stop-opacity="0"/></radialGradient><radialGradient id="radial-gradient-2" cx="408.19" cy="325.36" r="225.9" gradientUnits="userSpaceOnUse"><stop offset="0" stop-color="#d3a759"/><stop offset="0.44" stop-color="#d1a558"/><stop offset="0.62" stop-color="#ca9e55"/><stop offset="0.76" stop-color="#be924f"/><stop offset="0.87" stop-color="#ac8147"/><stop offset="0.97" stop-color="#956b3d"/><stop offset="1" stop-color="#8c6239"/></radialGradient><radialGradient id="radial-gradient-3" cx="419.12" cy="413" r="140.89" gradientTransform="translate(0 41.3) scale(1 0.9)" gradientUnits="userSpaceOnUse"><stop offset="0" stop-color="#f2f2f2"/><stop offset="0.34" stop-color="#f2f2f2" stop-opacity="0.99"/><stop offset="0.48" stop-color="#f2f2f2" stop-opacity="0.96"/><stop offset="0.58" stop-color="#f2f2f2" stop-opacity="0.91"/><stop offset="0.67" stop-color="#f2f2f2" stop-opacity="0.84"/><stop offset="0.74" stop-color="#f2f2f2" stop-opacity="0.75"/><stop offset="0.8" stop-color="#f2f2f2" stop-opacity="0.63"/><stop offset="0.86" stop-color="#f2f2f2" stop-opacity="0.49"/><stop offset="0.91" stop-color="#f2f2f2" stop-opacity="0.33"/><stop offset="0.96" stop-color="#f2f2f2" stop-opacity="0.16"/><stop offset="1" stop-color="#f2f2f2" stop-opacity="0"/></radialGradient><linearGradient id="linear-gradient-7" x1="387.9" y1="27.63" x2="387.9" y2="107.56" gradientUnits="userSpaceOnUse"><stop offset="0" stop-color="#c69c6d"/><stop offset="0.28" stop-color="#a67c52"/><stop offset="1" stop-color="#42210b"/></linearGradient><linearGradient id="linear-gradient-8" x1="255.48" y1="284.74" x2="255.48" y2="398.27" gradientUnits="userSpaceOnUse"><stop offset="0" stop-color="#d3a759" stop-opacity="0"/><stop offset="0.01" stop-color="#d1a658" stop-opacity="0.02"/><stop offset="0.17" stop-color="#bc914f" stop-opacity="0.32"/><stop offset="0.33" stop-color="#ab8047" stop-opacity="0.56"/><stop offset="0.49" stop-color="#9d7341" stop-opacity="0.76"/><stop offset="0.65" stop-color="#94693c" stop-opacity="0.89"/><stop offset="0.82" stop-color="#8e643a" stop-opacity="0.97"/><stop offset="1" stop-color="#8c6239"/></linearGradient><linearGradient id="linear-gradient-9" x1="-895.15" y1="-4395.38" x2="-895.15" y2="-4237.91" gradientTransform="translate(1841.03 4518.13) rotate(-6.04)" gradientUnits="userSpaceOnUse"><stop offset="0" stop-color="#d3a759" stop-opacity="0"/><stop offset="0" stop-color="#d3a759" stop-opacity="0.01"/><stop offset="0.07" stop-color="#d3a759" stop-opacity="0.31"/><stop offset="0.14" stop-color="#d3a759" stop-opacity="0.55"/><stop offset="0.2" stop-color="#d3a759" stop-opacity="0.75"/><stop offset="0.26" stop-color="#d3a759" stop-opacity="0.89"/><stop offset="0.31" stop-color="#d3a759" stop-opacity="0.97"/><stop offset="0.34" stop-color="#d3a759"/><stop offset="0.72" stop-color="#a77d45"/><stop offset="1" stop-color="#8c6239"/></linearGradient><radialGradient id="radial-gradient-4" cx="24.41" cy="-57.04" r="23.04" gradientTransform="translate(284.76 248.65) scale(1.15 0.92)" gradientUnits="userSpaceOnUse"><stop offset="0" stop-color="#422f14"/><stop offset="0.49" stop-color="#422f14" stop-opacity="0.97"/><stop offset="0.66" stop-color="#422f14" stop-opacity="0.87"/><stop offset="0.79" stop-color="#422f14" stop-opacity="0.69"/><stop offset="0.89" stop-color="#422f14" stop-opacity="0.43"/><stop offset="0.98" stop-color="#422f14" stop-opacity="0.11"/><stop offset="1" stop-color="#422f14" stop-opacity="0"/></radialGradient><radialGradient id="radial-gradient-5" cx="30.86" cy="8.56" r="26.1" gradientTransform="translate(412.6 190.61) scale(1.23 0.79)" xlink:href="#radial-gradient-4"/><radialGradient id="radial-gradient-6" cx="317.47" cy="177.86" r="15.68" gradientUnits="userSpaceOnUse"><stop offset="0" stop-color="#94e8ff"/><stop offset="0.14" stop-color="#90e2f9"/><stop offset="0.33" stop-color="#83d2e9"/><stop offset="0.54" stop-color="#6fb6cf"/><stop offset="0.76" stop-color="#5290aa"/><stop offset="1" stop-color="#2f617c"/></radialGradient><radialGradient id="radial-gradient-7" cx="447.15" cy="172.64" r="18.05" xlink:href="#radial-gradient-6"/></defs><title>Artboard 18</title><path class="cls-1" d="M574.55,66.82a11.61,11.61,0,0,0-9.14-4.09,12.47,12.47,0,0,0-1.49.12L455.57,78.68a11.36,11.36,0,0,0-8.92,6.82,10.53,10.53,0,0,0,1.7,10.79l68.35,81.79a11.61,11.61,0,0,0,9.14,4.09,12.32,12.32,0,0,0,1.48-.13,11.36,11.36,0,0,0,8.92-6.82l40-97.62A10.51,10.51,0,0,0,574.55,66.82Z"/><path class="cls-2" d="M348.51,79.68a11.43,11.43,0,0,0-7-9L239.3,29a11.17,11.17,0,0,0-3.29-.81A11.4,11.4,0,0,0,223.68,41l15.6,108.65a11.4,11.4,0,0,0,7,9,11.57,11.57,0,0,0,3.29.81,11.43,11.43,0,0,0,8-2.34l86.63-66.95A11.41,11.41,0,0,0,348.51,79.68Z"/><path class="cls-3" d="M332.39,93.41a4.72,4.72,0,0,0-2.62-3.81l-82.2-40.39a4.8,4.8,0,0,0-5,.47,4.74,4.74,0,0,0-1.81,4.65l17.28,89.3A4.74,4.74,0,0,0,261,147.2a4.49,4.49,0,0,0,1.24.3,4.71,4.71,0,0,0,3.34-.93l64.92-48.92A4.75,4.75,0,0,0,332.39,93.41Z"/><path class="cls-4" d="M560.13,78.43a4.73,4.73,0,0,0-3.66-1.73,4.54,4.54,0,0,0-1.15.15l-91.56,22.9a4.75,4.75,0,0,0-2.51,7.63L513,170.06a4.74,4.74,0,0,0,3.66,1.72,4.26,4.26,0,0,0,.61,0A4.74,4.74,0,0,0,521,169l39.79-85.57A4.75,4.75,0,0,0,560.13,78.43Z"/><ellipse class="cls-5" cx="490.85" cy="563.1" rx="26.13" ry="49.88"/><ellipse class="cls-6" cx="360.22" cy="563.58" rx="26.13" ry="49.88"/><ellipse class="cls-7" cx="450" cy="599.35" rx="433.22" ry="125.02"/><path class="cls-8" d="M582.06,313.24c-13.39-31.58-34.28-59.33-38-81.7-1.9-11.4,3.8-19.95-2.85-45.6-2-7.79-8.55-25.65-10.45-36.1-12.63-69.5-60.52-77-138.7-77-73.32,0-123.76-.79-148.21,66.5-10.12,26.38-19,36.11-20,66.51-.41,13.13,9.29,39.71,7.6,53.2-1.8,14.37-14,41.8-16.15,58.9-2.88,22.42-3.79,33.53-1.9,57.51.95,10.72,1.9,19.65,3.8,32.15C231.34,500.43,316.9,585,439.31,577.36c121.85-7.6,142.75-46.56,160.8-137.76C607.39,402.82,605.81,369.3,582.06,313.24Z"/><ellipse class="cls-9" cx="419.12" cy="413" rx="152.48" ry="128.26"/><path class="cls-10" d="M449.6,91.18,431.31,80.64l7-5.75a1.42,1.42,0,0,0,.48-1.42,1.44,1.44,0,0,0-1.07-1.07L426,69.7,429.43,68a1.43,1.43,0,0,0,.8-1.27,1.45,1.45,0,0,0-.77-1.28l-13.85-7.12-1.92-24a1.42,1.42,0,0,0-2.37-.94l-5.74,5.17-1.15-9.47a1.43,1.43,0,0,0-2.44-.83l-10.88,11.1-4.29-10.89a1.42,1.42,0,0,0-2.55-.21l-9.76,16.22L360,41.92a1.43,1.43,0,0,0-1.4.54,1.46,1.46,0,0,0-.14,1.49l5.06,10.23L346.21,50a1.42,1.42,0,0,0-1.63,2L349,61.8l-22.13,1.35a1.45,1.45,0,0,0-1.28,1A1.42,1.42,0,0,0,326,65.7l23.26,18-9.74,15a1.43,1.43,0,0,0,.11,1.7,1.45,1.45,0,0,0,1.66.38l11.9-5.21-1.43,3.34a1.42,1.42,0,0,0,.37,1.64,1.43,1.43,0,0,0,1.68.14l15.71-9.6,6.94,15.61a1.44,1.44,0,0,0,1.08.83l.23,0a1.47,1.47,0,0,0,1.05-.46L389,96l13.06,4.9a1.45,1.45,0,0,0,.93.92,1.43,1.43,0,0,0,1.78-1l3.46-11.23,40.47,4.22a1.43,1.43,0,0,0,.86-2.66Z"/><path class="cls-11" d="M394.9,236.57c31.77-10,34.67-14.06,34.67-14.06"/><path class="cls-11" d="M395.24,240.23c33.17-3,37.18-.62,37.18-.62"/><path class="cls-11" d="M396,245.93c33.22,2.29,34.48,5.09,34.48,5.09"/><path class="cls-11" d="M382.3,294.57c-31.77-10-36.63-9.31-36.63-9.31"/><path class="cls-11" d="M382,298.23c-33.17-3-36.29.33-36.29.33"/><path class="cls-11" d="M381.16,303.93c-33.22,2.29-34.54,7-34.54,7"/><circle cx="381.6" cy="241.04" r="5.7"/><path class="cls-12" d="M285.64,284.74c0,42.75-2.87,113.53-30.16,113.53-23.46,0-30.17-50.14-30.17-92.89"/><path class="cls-13" d="M519.79,238c5.19,49.07,9.38,159.05-16,160-27.74,1.06-40.88-89.85-45-139"/><ellipse class="cls-14" cx="312.72" cy="196.39" rx="29.93" ry="22.8"/><ellipse class="cls-15" cx="450.48" cy="197.34" rx="38.48" ry="21.85"/><path class="cls-16" d="M295.14,194.77s-.63-36.4,17.58-34.52,17.57,32.64,17.57,32.64Z"/><path class="cls-17" d="M426.13,193.08s2.3-50.41,27.31-46.22,21.47,46.68,21.47,46.68Z"/><path class="cls-17" d="M474.91,201.14h-.08l-48.78-.46a7.62,7.62,0,0,1-7.52-8c.17-3.64,2.08-36,17.65-48.55a22.72,22.72,0,0,1,18.52-4.81c9.48,1.59,21.75,8.24,26.3,30.9a95,95,0,0,1,1.48,23.9A7.61,7.61,0,0,1,474.91,201.14Zm-40.44-15.58,32.94.31c-.29-10.54-2.61-29.4-15.22-31.51a7.53,7.53,0,0,0-6.45,1.64C439.58,161,436,174.57,434.47,185.56Z"/><circle class="cls-18" cx="317.47" cy="177.86" r="15.68"/><circle cx="317.47" cy="177.86" r="8.08"/><circle class="cls-19" cx="447.15" cy="172.64" r="18.05"/><circle cx="446.67" cy="173.11" r="9.98"/><path class="cls-20" d="M479.45,129.88s-16.56-10.23-35.67-1-16.82,14.46-22.57,6.22"/><path class="cls-20" d="M282.79,155.54A41.61,41.61,0,0,1,320.68,154c20.62,9.48,18.35,15,24.2,6.23"/><ellipse class="cls-17" cx="455.7" cy="165.99" rx="4.75" ry="3.8"/><ellipse class="cls-17" cx="322.69" cy="172.64" rx="4.75" ry="3.8"/></svg>
